<svg xmlns="http://www.w3.org/2000/svg" xmlns:xlink="http://www.w3.org/1999/xlink" width="16" height="16" viewBox="0 0 16 16">
  <defs>
    <clipPath id="clip-path">
      <rect id="Rectangle_4901" data-name="Rectangle 4901" width="16" height="16" fill="#000" stroke="#707070" stroke-width="1"/>
    </clipPath>
  </defs>
  <g id="Mask_Group_13" data-name="Mask Group 13" clip-path="url(#clip-path)">
    <g id="add-circle" transform="translate(0 0)">
      <path id="Path_58707" data-name="Path 58707" d="M8.93,16.93a8,8,0,1,1,8-8A8.007,8.007,0,0,1,8.93,16.93Zm0-14.884A6.884,6.884,0,1,0,15.814,8.93,6.892,6.892,0,0,0,8.93,2.047Z" transform="translate(-0.93 -0.93)" fill="#000"/>
      <path id="Path_58708" data-name="Path 58708" d="M11.907,9.488H5.953a.558.558,0,1,1,0-1.116h5.953a.558.558,0,1,1,0,1.116Z" transform="translate(-0.93 -0.93)" fill="#000"/>
      <path id="Path_58709" data-name="Path 58709" d="M8.93,12.465a.562.562,0,0,1-.558-.558V5.953a.558.558,0,1,1,1.116,0v5.953A.562.562,0,0,1,8.93,12.465Z" transform="translate(-0.93 -0.93)" fill="#000"/>
    </g>
  </g>
</svg>
