<svg xmlns="http://www.w3.org/2000/svg" width="16" height="16" viewBox="0 0 18.7 21.496">
  <g id="shield-tick" transform="translate(-2.66 -1.248)">
    <path id="Path_58362" data-name="Path 58362" d="M12,1.248a5.378,5.378,0,0,1,1.784.278l.006,0,4.99,1.87A4.21,4.21,0,0,1,21.36,7.12v7.43a5.6,5.6,0,0,1-2.031,4.041l-4.3,3.21a5.038,5.038,0,0,1-3.019.944A5.04,5.04,0,0,1,8.989,21.8l-4.3-3.208A5.6,5.6,0,0,1,2.66,14.55V7.12A4.2,4.2,0,0,1,5.237,3.408l4.988-1.879A5.244,5.244,0,0,1,12,1.248ZM13.27,2.934A3.928,3.928,0,0,0,12,2.748a3.788,3.788,0,0,0-1.25.185L5.764,4.812A2.729,2.729,0,0,0,4.16,7.12v7.43a4.129,4.129,0,0,0,1.429,2.839l4.3,3.21a3.587,3.587,0,0,0,2.121.646,3.586,3.586,0,0,0,2.119-.644l4.3-3.212A4.129,4.129,0,0,0,19.86,14.55V7.12a2.737,2.737,0,0,0-1.6-2.318Z" fill="#000"/>
    <path id="Path_58363" data-name="Path 58363" d="M10.66,14.23a.75.75,0,0,1-.53-.22L8.52,12.4A.75.75,0,0,1,9.58,11.34l1.08,1.08,3.77-3.77A.75.75,0,0,1,15.49,9.71l-4.3,4.3A.75.75,0,0,1,10.66,14.23Z" fill="#000"/>
  </g>
</svg>
