<svg xmlns="http://www.w3.org/2000/svg" xmlns:xlink="http://www.w3.org/1999/xlink" width="16" height="16" viewBox="0 0 16 16">
  <defs>
    <clipPath id="clip-path">
      <rect id="Rectangle_6977" data-name="Rectangle 6977" width="16" height="16" transform="translate(1794 362)" stroke="#707070" stroke-width="1" />
    </clipPath>
  </defs>
  <g id="Mask_Group_18827" data-name="Mask Group 18827" transform="translate(-1794 -362)">
    <g id="edit-2" transform="translate(1794.684 362)">
      <path id="Path_58749" data-name="Path 58749" d="M5.377,15.182a1.719,1.719,0,0,1-1.193-.45,1.787,1.787,0,0,1-.51-1.523l.278-2.431a2.7,2.7,0,0,1,.653-1.4l6.16-6.52c1.538-1.628,3.144-1.673,4.772-.135S17.21,5.87,15.672,7.5l-6.16,6.52a2.7,2.7,0,0,1-1.358.728l-2.416.413c-.128.008-.24.023-.36.023Zm7.8-12.463a2.292,2.292,0,0,0-1.591.9l-6.16,6.528a1.733,1.733,0,0,0-.353.75l-.278,2.431a.659.659,0,0,0,.165.578.676.676,0,0,0,.585.135l2.416-.413a1.676,1.676,0,0,0,.728-.39l6.16-6.52c.93-.99,1.268-1.906-.09-3.181a2.373,2.373,0,0,0-1.583-.818Z" transform="translate(-2.908 -1.605)" />
      <path id="Path_58750" data-name="Path 58750" d="M17.195,9.83h-.053a5.147,5.147,0,0,1-4.585-4.337.566.566,0,1,1,1.118-.173,4.031,4.031,0,0,0,3.587,3.392.563.563,0,0,1,.5.615A.581.581,0,0,1,17.195,9.83Z" transform="translate(-5.872 -2.684)" />
      <path id="Path_58751" data-name="Path 58751" d="M16.6,25.042H3.1a.563.563,0,0,1,0-1.126H16.6a.563.563,0,0,1,0,1.126Z" transform="translate(-2.532 -9.042)" />
    </g>
  </g>
</svg>
