<svg xmlns="http://www.w3.org/2000/svg" xmlns:xlink="http://www.w3.org/1999/xlink" width="16" height="16" viewBox="0 0 16 16">
  <defs>
    <clipPath id="clip-path">
      <rect id="Rectangle_6978" data-name="Rectangle 6978" width="16" height="16" transform="translate(1830 362)" stroke="#707070" stroke-width="1" />
    </clipPath>
  </defs>
  <g id="Mask_Group_18828" data-name="Mask Group 18828" transform="translate(-1830 -362)">
    <g id="trash" transform="translate(1830.745 362)">
      <path id="Path_58752" data-name="Path 58752" d="M16.464,6.763H16.4A58.624,58.624,0,0,0,4.646,6.614l-1.518.149a.562.562,0,0,1-.618-.506.554.554,0,0,1,.5-.61L4.527,5.5a60.386,60.386,0,0,1,11.989.149.559.559,0,0,1,.5.61.551.551,0,0,1-.551.506Z" transform="translate(-2.508 -2.684)" />
      <path id="Path_58753" data-name="Path 58753" d="M9.209,4.722a.458.458,0,0,1-.1-.007.56.56,0,0,1-.454-.64L8.822,3.1c.119-.714.283-1.7,2.017-1.7h1.95c1.741,0,1.905,1.027,2.017,1.712l.164.967a.555.555,0,1,1-1.094.186l-.164-.967c-.1-.647-.127-.774-.915-.774h-1.95c-.789,0-.8.1-.915.767l-.171.967a.558.558,0,0,1-.551.469Z" transform="translate(-4.556 -1.395)" />
      <path id="Path_58754" data-name="Path 58754" d="M12.956,20.052H8.178c-2.6,0-2.7-1.436-2.783-2.6L4.911,9.961a.559.559,0,1,1,1.116-.074l.484,7.494c.082,1.131.112,1.555,1.667,1.555h4.778c1.563,0,1.593-.424,1.667-1.555l.484-7.494a.569.569,0,0,1,.6-.521.559.559,0,0,1,.521.6l-.484,7.494c-.082,1.161-.186,2.6-2.783,2.6Z" transform="translate(-3.308 -4.052)" />
      <path id="Path_58755" data-name="Path 58755" d="M13.73,18.7H11.252a.558.558,0,1,1,0-1.116H13.73a.558.558,0,1,1,0,1.116Z" transform="translate(-5.236 -6.791)" />
      <path id="Path_58756" data-name="Path 58756" d="M14.047,14.233H10.326a.558.558,0,0,1,0-1.116h3.721a.558.558,0,0,1,0,1.116Z" transform="translate(-4.928 -5.302)" />
    </g>
  </g>
</svg>
