<svg xmlns="http://www.w3.org/2000/svg" xmlns:xlink="http://www.w3.org/1999/xlink" width="16" height="16" viewBox="0 0 16 16">
  <defs>
    <clipPath id="clip-path">
      <rect id="Rectangle_4901" data-name="Rectangle 4901" width="16" height="16" transform="translate(16 5.683)" stroke="#707070" stroke-width="1" />
    </clipPath>
  </defs>
  <g id="Mask_Group_18842" data-name="Mask Group 18842" transform="translate(-16 -5.683)">
    <g id="export" transform="translate(13.064 2.773)">
      <path id="Path_58801" data-name="Path 58801" d="M13.159,6.607a.676.676,0,0,1-.483-.2l-1.85-1.85-1.85,1.85A.683.683,0,0,1,8.01,5.44l2.333-2.333a.688.688,0,0,1,.966,0L13.642,5.44a.688.688,0,0,1,0,.966A.676.676,0,0,1,13.159,6.607Z" />
      <path id="Path_58802" data-name="Path 58802" d="M10.826,13.606a.688.688,0,0,1-.683-.683V3.654a.683.683,0,1,1,1.367,0v9.268A.683.683,0,0,1,10.826,13.606Z" />
      <path id="Path_58803" data-name="Path 58803" d="M10.935,18.909a7.631,7.631,0,0,1-7.974-7.974.683.683,0,1,1,1.367,0,6.32,6.32,0,0,0,6.607,6.607,6.32,6.32,0,0,0,6.607-6.607.683.683,0,1,1,1.367,0A7.631,7.631,0,0,1,10.935,18.909Z" />
    </g>
  </g>
</svg>
